{"glyphs":{":":{"x_min":0,"x_max":154,"ha":154,"o":"m 77 332 b 87 335 98 343 97 355 b 97 367 96 380 94 392 b 93 403 81 405 72 402 b 62 400 54 392 53 381 b 53 368 53 356 53 343 b 54 332 68 329 77 332 z m 103 117 b 103 120 102 123 101 125 b 100 131 97 134 92 137 b 81 143 67 136 60 129 b 49 118 49 100 51 86 b 52 73 68 70 79 73 b 92 77 102 86 103 101 b 104 106 104 112 103 117 z"},"$":{"x_min":0,"x_max":495,"ha":495,"o":"m 438 74 b 420 128 370 164 328 198 b 316 207 305 216 293 226 b 298 335 303 444 309 553 b 338 540 362 517 375 485 b 383 466 421 485 413 504 b 395 552 356 581 311 592 b 314 643 317 693 320 744 b 321 761 287 751 286 734 b 282 689 279 643 277 598 b 244 600 211 595 181 584 b 140 568 98 538 74 500 b 43 453 45 400 63 349 b 95 256 176 190 252 132 b 248 50 245 -33 242 -115 b 206 -108 174 -84 157 -50 b 142 -21 140 13 143 45 b 146 71 147 114 172 129 b 189 140 172 160 156 150 b 115 126 108 74 104 30 b 100 -21 111 -73 149 -109 b 176 -135 208 -148 241 -150 b 240 -180 240 -209 239 -239 b 238 -260 279 -247 280 -228 b 280 -201 281 -175 281 -148 b 327 -140 371 -115 401 -78 b 437 -35 456 20 438 74 z m 258 258 b 242 273 227 288 212 304 b 179 342 144 393 139 444 b 134 495 166 541 215 557 b 234 563 255 564 274 562 b 268 461 263 359 258 258 z m 298 -112 b 293 -114 287 -115 282 -116 b 284 -42 286 31 289 105 b 322 81 358 54 367 14 b 378 -33 344 -98 298 -112 z"},"?":{"x_min":0,"x_max":462,"ha":462,"o":"m 311 678 b 236 699 147 668 97 610 b 69 576 52 533 50 489 b 49 453 56 404 99 396 b 116 393 139 422 115 427 b 80 434 88 501 93 524 b 102 560 121 593 150 615 b 203 656 287 659 317 590 b 342 530 316 454 295 397 b 271 331 240 269 212 205 b 179 132 147 53 142 -28 b 140 -52 173 -58 190 -55 b 213 -51 240 -35 244 -11 b 253 33 262 75 276 116 b 291 157 309 196 326 235 b 361 316 398 397 409 486 b 419 566 398 654 311 678 z m 215 -107 b 206 -95 179 -105 172 -115 b 157 -135 156 -162 158 -186 b 162 -224 233 -201 229 -168 b 226 -148 227 -123 215 -107 z"},"<":{"x_min":0,"x_max":401,"ha":401,"o":"m 335 237 b 304 255 264 261 229 268 b 210 273 192 278 174 285 b 190 295 205 305 221 315 b 250 334 291 352 312 380 b 320 392 316 405 300 405 b 263 403 224 378 191 363 b 154 345 118 326 82 307 b 64 297 35 267 59 247 b 90 220 130 208 170 198 b 209 188 247 178 286 168 b 321 158 379 211 335 237 z"},"'":{"x_min":0,"x_max":207,"ha":207,"o":"m 119 716 b 94 715 72 698 64 675 b 50 634 43 586 60 544 b 72 513 123 541 129 563 b 140 602 144 642 156 681 b 163 704 138 717 119 716 z"},"=":{"x_min":0,"x_max":462,"ha":462,"o":"m 397 318 b 347 343 278 332 224 327 b 194 325 165 322 136 317 b 109 313 75 311 57 288 b 53 283 49 275 52 268 b 63 248 92 252 111 252 b 140 253 169 254 197 255 b 224 257 251 257 278 258 b 307 258 336 255 364 257 b 389 259 436 299 397 318 z m 368 228 b 312 226 256 223 200 218 b 156 215 84 216 55 178 b 49 170 47 160 57 155 b 76 145 100 152 120 154 b 145 156 170 158 195 159 b 248 162 300 164 353 167 b 371 167 394 181 398 200 b 402 219 385 229 368 228 z"},"a":{"x_min":0,"x_max":504,"ha":504,"o":"m 500 225 b 478 167 452 110 423 56 b 410 33 397 0 374 -14 b 343 -33 334 3 329 26 b 317 82 322 139 326 195 b 328 226 332 256 335 286 b 339 317 347 353 339 384 b 328 428 268 413 246 384 b 243 385 240 387 237 388 b 200 403 159 394 124 377 b 55 342 5 277 -16 202 b -33 138 -39 30 31 -7 b 102 -45 160 29 184 87 b 194 111 201 136 208 161 b 208 150 209 140 209 130 b 211 65 226 -22 296 -47 b 360 -69 410 -38 442 18 b 479 84 510 155 536 227 b 544 247 506 240 500 225 z m 167 152 b 156 116 144 77 122 46 b 112 31 106 23 95 41 b 88 53 85 67 83 81 b 75 145 87 212 120 268 b 132 288 147 310 169 322 b 184 330 201 324 216 314 b 196 261 183 206 167 152 z"},"L":{"x_min":0,"x_max":412,"ha":412,"o":"m 182 -110 b 126 -116 67 -145 51 -203 b 44 -227 86 -219 92 -201 b 109 -144 176 -140 230 -145 b 236 -174 242 -202 254 -228 b 268 -263 334 -236 337 -206 b 339 -192 339 -179 339 -165 b 385 -176 430 -187 475 -198 b 543 -213 612 -225 682 -225 b 740 -224 801 -207 830 -153 b 844 -128 801 -128 791 -146 b 756 -210 649 -190 590 -181 b 518 -171 447 -151 376 -135 b 364 -132 351 -129 338 -126 b 337 -103 335 -80 333 -57 b 329 -7 324 42 320 91 b 312 188 305 285 301 382 b 291 577 291 773 297 968 b 298 999 254 1004 232 999 b 202 991 177 967 175 935 b 165 740 166 544 177 349 b 182 252 190 156 201 59 b 206 11 212 -38 220 -87 b 222 -94 223 -101 224 -109 b 210 -108 196 -109 182 -110 z"},"3":{"x_min":0,"x_max":583,"ha":583,"o":"m 161 399 b 182 404 184 434 158 428 b 128 421 101 448 93 475 b 84 507 97 541 115 567 b 149 618 209 650 270 650 b 331 649 386 598 367 534 b 352 482 294 448 245 433 b 223 427 197 409 196 384 b 195 360 216 349 238 350 b 305 353 367 309 399 252 b 437 182 435 97 404 24 b 377 -41 322 -88 248 -83 b 208 -80 174 -62 157 -24 b 140 17 144 66 147 109 b 150 140 101 130 96 106 b 82 29 74 -63 148 -113 b 212 -158 304 -150 372 -119 b 528 -47 582 184 485 323 b 455 364 416 396 372 415 b 398 437 420 464 435 495 b 465 560 442 629 378 662 b 259 724 81 651 52 516 b 38 450 89 380 161 399 z"},";":{"x_min":0,"x_max":204,"ha":204,"o":"m 117 324 b 129 327 147 339 144 354 b 143 360 142 367 140 373 b 138 379 137 388 131 392 b 118 401 101 394 92 381 b 87 374 88 366 87 359 b 87 352 87 345 87 338 b 87 324 107 321 117 324 z m 73 97 b 70 72 65 47 59 22 b 54 -1 46 -21 53 -44 b 60 -70 107 -51 113 -34 b 132 10 147 54 154 102 b 161 150 79 135 73 97 z"},"J":{"x_min":0,"x_max":988,"ha":988,"o":"m 87 895 b 72 906 38 883 54 870 b 83 849 116 845 150 845 b 198 845 245 848 292 851 b 385 859 478 872 570 886 b 627 895 683 904 740 912 b 755 881 756 844 758 810 b 762 760 763 710 764 660 b 764 639 765 619 765 599 b 639 525 518 440 412 340 b 284 217 124 30 174 -162 b 198 -253 272 -327 361 -359 b 458 -393 558 -361 637 -300 b 805 -171 860 50 872 252 b 880 370 877 489 870 608 b 882 614 893 621 905 628 b 915 634 928 646 922 659 b 916 671 897 670 887 665 b 880 661 874 658 867 655 b 864 710 860 765 852 820 b 847 855 842 893 827 924 b 834 925 840 926 847 927 b 895 933 943 938 991 941 b 1040 945 1089 948 1135 931 b 1153 925 1185 954 1162 962 b 1081 992 987 976 903 966 b 871 963 839 959 806 954 b 803 958 799 962 794 965 b 781 976 763 973 749 964 b 743 961 734 952 730 943 b 695 938 661 932 626 927 b 533 912 441 898 348 888 b 303 884 258 880 214 879 b 173 877 121 869 87 895 z m 766 350 b 761 171 745 -26 638 -176 b 596 -234 535 -298 458 -300 b 377 -302 290 -243 254 -172 b 170 -7 321 178 430 289 b 530 390 646 471 766 545 b 767 480 768 415 766 350 z"},"V":{"x_min":0,"x_max":984,"ha":984,"o":"m 69 934 b 55 930 41 912 57 902 b 82 886 100 857 112 830 b 126 794 140 758 153 722 b 181 644 206 565 230 485 b 277 328 317 165 393 19 b 427 -44 474 -107 545 -130 b 629 -157 698 -106 741 -38 b 782 25 803 103 825 174 b 849 249 869 325 890 400 b 938 572 989 744 1086 895 b 1091 904 1085 913 1076 916 b 1065 918 1053 911 1047 902 b 881 645 852 334 739 56 b 724 20 707 -15 681 -44 b 656 -72 630 -72 600 -53 b 544 -18 510 44 484 102 b 418 247 376 402 328 553 b 302 639 272 725 232 805 b 201 868 152 954 69 934 z"},"\"":{"x_min":0,"x_max":260,"ha":260,"o":"m 57 667 b 51 641 49 612 51 586 b 53 564 54 541 74 529 b 88 521 108 536 108 550 b 111 590 123 632 132 671 b 142 716 64 702 57 667 z m 132 657 b 126 618 121 570 144 536 b 155 520 179 532 184 547 b 198 583 199 624 209 662 b 220 705 138 695 132 657 z"},"7":{"x_min":0,"x_max":449,"ha":449,"o":"m 60 593 b 101 585 141 599 180 610 b 220 621 260 632 302 633 b 324 633 351 631 350 603 b 350 583 338 563 330 545 b 314 505 300 464 285 423 b 266 376 248 328 232 280 b 216 279 200 277 185 274 b 162 269 161 239 187 244 b 198 246 209 248 221 249 b 185 144 157 36 146 -75 b 140 -137 240 -117 248 -69 b 265 23 280 115 304 205 b 309 221 313 236 318 252 b 336 252 354 253 372 255 b 393 257 408 291 380 288 b 362 286 345 285 327 284 b 346 347 366 410 381 474 b 394 526 427 649 345 664 b 305 671 261 661 222 652 b 177 641 124 614 77 623 b 59 627 36 598 60 593 z"},"S":{"x_min":0,"x_max":661,"ha":661,"o":"m 384 898 b 396 881 434 900 423 917 b 387 970 323 990 260 982 b 190 974 130 932 96 870 b 57 802 38 721 58 644 b 81 555 135 482 199 418 b 221 396 245 373 269 351 b 146 283 56 138 55 -1 b 54 -87 94 -168 169 -213 b 243 -256 338 -255 416 -221 b 497 -185 562 -110 583 -23 b 604 66 580 160 533 237 b 437 398 255 490 173 662 b 137 738 114 842 178 909 b 232 965 339 962 384 898 z m 498 -2 b 502 -86 452 -161 375 -194 b 291 -230 189 -201 137 -125 b 75 -37 93 78 140 169 b 175 235 226 295 293 329 b 392 237 492 137 498 -2 z"},"}":{"x_min":0,"x_max":445,"ha":445,"o":"m 385 349 b 292 436 295 575 268 690 b 254 747 235 820 181 852 b 139 876 81 883 53 835 b 40 814 78 815 88 830 b 97 843 118 838 126 827 b 132 819 135 808 139 799 b 149 775 158 750 165 725 b 180 672 184 617 191 563 b 201 481 217 395 266 327 b 251 315 239 300 230 282 b 206 232 213 170 217 116 b 220 59 226 2 222 -56 b 221 -84 217 -114 210 -142 b 205 -159 200 -185 176 -183 b 156 -180 114 -211 145 -227 b 191 -252 246 -220 272 -181 b 305 -134 311 -73 313 -17 b 315 42 309 101 306 160 b 305 186 302 215 306 241 b 308 253 311 265 317 275 b 317 276 318 277 319 278 b 320 278 321 278 322 277 b 354 270 421 315 385 349 z"},"Z":{"x_min":0,"x_max":816,"ha":816,"o":"m 793 -99 b 720 -96 643 -123 575 -147 b 505 -171 436 -199 364 -214 b 337 -219 299 -225 279 -201 b 260 -179 263 -145 269 -119 b 285 -52 320 13 354 72 b 407 162 469 247 525 335 b 551 339 576 342 602 344 b 623 346 639 381 610 378 b 589 376 568 373 548 370 b 559 389 570 408 581 427 b 616 490 653 561 663 633 b 674 706 646 773 584 816 b 513 864 422 876 338 879 b 247 883 156 869 68 844 b 45 838 43 805 71 812 b 150 833 232 837 313 827 b 382 819 465 805 518 756 b 573 705 567 634 539 570 b 510 504 474 442 435 382 b 427 370 420 359 412 347 b 375 339 338 331 301 321 b 278 315 277 283 303 290 b 331 298 359 304 387 310 b 323 218 257 126 207 26 b 176 -34 134 -114 146 -183 b 160 -262 230 -296 305 -285 b 387 -274 466 -242 543 -213 b 582 -199 622 -184 662 -173 b 704 -160 746 -154 789 -146 b 818 -141 829 -101 793 -99 z"},"x":{"x_min":0,"x_max":416,"ha":416,"o":"m 413 254 b 386 197 359 140 321 90 b 302 65 280 41 254 23 b 240 13 225 5 207 12 b 195 18 185 28 177 38 b 140 85 126 150 116 208 b 146 256 179 303 215 347 b 232 367 198 376 185 360 b 158 327 133 293 110 257 b 104 306 103 355 97 404 b 90 470 -23 427 -23 372 b -23 292 -14 209 11 134 b 15 124 18 114 22 103 b 5 67 -11 30 -25 -9 b -33 -29 6 -23 13 -6 b 21 17 31 40 41 63 b 65 16 100 -25 152 -34 b 224 -47 292 5 336 56 b 385 113 417 181 449 248 b 460 271 421 271 413 254 z"},")":{"x_min":0,"x_max":400,"ha":400,"o":"m 257 609 b 218 680 163 750 82 775 b 66 780 36 756 57 747 b 100 731 117 694 135 655 b 152 617 167 578 180 539 b 209 455 230 370 238 282 b 245 195 241 109 225 24 b 211 -46 196 -155 126 -193 b 98 -208 101 -247 138 -238 b 218 -218 267 -151 296 -77 b 325 -1 341 77 348 158 b 359 312 332 474 257 609 z"},"&":{"x_min":0,"x_max":779,"ha":779,"o":"m 725 225 b 667 290 575 314 491 292 b 468 285 466 251 494 259 b 521 266 548 267 574 262 b 574 261 573 259 573 258 b 570 163 538 72 481 -4 b 429 -75 353 -141 258 -127 b 186 -116 137 -55 139 16 b 140 58 150 102 172 141 b 187 167 207 191 232 209 b 247 221 263 231 280 240 b 284 242 288 244 292 246 b 320 249 346 256 370 267 b 399 280 420 331 375 337 b 351 341 329 335 307 327 b 277 324 247 332 227 361 b 198 406 217 462 240 505 b 263 548 296 583 349 582 b 403 581 452 532 445 477 b 442 450 486 459 489 479 b 498 552 443 611 372 621 b 297 630 221 592 172 536 b 119 477 87 382 134 310 b 148 289 166 274 186 263 b 161 244 138 223 119 198 b 77 144 52 78 50 9 b 48 -78 106 -153 190 -173 b 299 -200 409 -138 480 -60 b 556 24 611 137 610 252 b 640 241 667 222 689 198 b 703 182 741 207 725 225 z"},"_":{"x_min":0,"x_max":520,"ha":520,"o":"m 452 -70 b 390 -56 323 -55 260 -57 b 229 -58 198 -60 167 -64 b 136 -69 102 -71 71 -78 b 58 -81 39 -103 58 -112 b 84 -124 113 -120 141 -119 b 173 -117 204 -114 236 -114 b 302 -113 367 -122 432 -122 b 459 -122 491 -79 452 -70 z"},"v":{"x_min":0,"x_max":487,"ha":487,"o":"m 508 255 b 472 254 434 259 399 272 b 403 286 407 301 410 316 b 424 375 439 442 430 503 b 423 553 391 600 336 573 b 290 549 266 494 259 445 b 251 386 260 317 309 277 b 322 266 337 257 353 249 b 342 215 330 181 317 149 b 300 107 279 57 247 25 b 232 11 215 3 198 17 b 182 29 170 44 160 61 b 104 155 99 263 87 368 b 80 430 -30 391 -27 338 b -21 217 -1 71 95 -15 b 141 -56 207 -56 254 -16 b 297 21 326 75 348 126 b 363 161 377 198 388 236 b 425 225 464 221 501 222 b 522 223 536 256 508 255 z m 389 441 b 386 390 377 338 363 288 b 320 313 301 354 299 403 b 296 447 304 501 336 534 b 384 584 391 467 389 441 z"},"O":{"x_min":0,"x_max":854,"ha":854,"o":"m 52 597 b 40 487 73 370 174 312 b 174 311 175 311 176 311 b 172 219 176 127 203 38 b 236 -72 322 -173 446 -167 b 571 -162 662 -62 715 43 b 770 152 800 272 804 394 b 808 511 789 631 743 740 b 701 840 624 935 515 962 b 287 1018 76 813 52 597 z m 726 442 b 725 341 706 238 670 142 b 641 63 594 -42 510 -77 b 406 -121 332 -9 308 77 b 292 140 287 206 288 271 b 368 257 456 268 516 317 b 536 334 511 352 494 337 b 440 294 359 292 289 308 b 291 356 294 404 298 451 b 299 477 263 484 244 481 b 222 477 187 459 185 432 b 182 408 180 383 179 358 b 119 406 92 482 91 559 b 90 755 254 958 462 934 b 690 908 728 626 726 442 z"},"(":{"x_min":0,"x_max":476,"ha":476,"o":"m 403 -194 b 258 -191 185 -28 163 93 b 137 237 152 382 197 520 b 210 559 227 595 244 632 b 253 650 262 668 272 685 b 277 693 282 701 288 709 b 290 711 291 714 293 717 b 295 720 297 722 299 725 b 300 726 301 726 302 727 b 312 718 341 734 333 748 b 314 777 270 747 251 733 b 216 707 189 669 166 632 b 119 555 86 468 68 379 b 49 290 45 199 56 109 b 67 20 90 -69 144 -141 b 204 -220 301 -262 400 -242 b 428 -236 441 -195 403 -194 z"},"C":{"x_min":0,"x_max":953,"ha":953,"o":"m 85 469 b 57 364 47 253 51 145 b 55 43 72 -73 130 -160 b 185 -244 270 -294 372 -293 b 471 -292 565 -244 635 -176 b 716 -95 764 12 810 115 b 834 170 856 227 875 284 b 894 343 910 404 940 458 b 953 482 913 482 903 465 b 858 382 838 288 804 201 b 769 112 725 25 671 -53 b 624 -122 562 -188 482 -215 b 404 -242 330 -221 273 -163 b 213 -100 191 -9 181 75 b 170 167 170 261 183 353 b 209 527 272 697 383 834 b 409 867 442 906 483 920 b 526 935 571 914 602 884 b 682 808 665 683 651 585 b 647 560 689 568 692 588 b 707 685 723 798 664 884 b 611 962 528 993 439 958 b 343 920 270 838 213 756 b 154 669 113 570 85 469 z"},"W":{"x_min":0,"x_max":1362,"ha":1362,"o":"m 1178 303 b 1170 237 1162 171 1150 105 b 1138 43 1126 -24 1099 -82 b 1077 -130 1036 -182 980 -149 b 933 -120 911 -63 891 -14 b 865 52 848 122 836 192 b 825 263 816 334 793 403 b 783 433 726 408 722 383 b 722 382 722 381 722 380 b 718 377 716 374 715 369 b 695 246 676 120 629 4 b 612 -38 585 -109 534 -119 b 486 -128 449 -61 434 -27 b 384 84 370 203 355 323 b 340 451 322 580 287 704 b 271 763 256 836 212 882 b 170 927 108 927 58 895 b 39 882 57 861 76 871 b 94 881 118 861 129 848 b 148 827 157 796 163 769 b 178 703 192 637 203 570 b 225 442 237 312 255 184 b 263 120 276 56 295 -5 b 313 -62 338 -125 388 -161 b 498 -238 612 -142 657 -41 b 687 26 707 97 723 169 b 731 102 746 37 767 -25 b 787 -85 815 -153 869 -191 b 921 -227 985 -232 1042 -203 b 1095 -175 1129 -124 1148 -69 b 1171 -6 1185 60 1196 127 b 1219 263 1227 402 1254 538 b 1268 610 1287 681 1316 748 b 1343 813 1381 893 1444 931 b 1467 944 1454 973 1430 959 b 1333 901 1281 777 1248 674 b 1209 554 1194 427 1178 303 z"},"A":{"x_min":0,"x_max":1180,"ha":1180,"o":"m 65 239 b 150 252 235 265 321 277 b 320 272 318 268 317 263 b 269 57 243 -153 214 -362 b 211 -383 246 -377 249 -360 b 284 -147 309 71 360 282 b 422 291 484 298 546 305 b 683 319 819 324 955 324 b 980 127 1003 -70 1019 -267 b 1024 -327 1134 -291 1130 -238 b 1115 -35 1088 168 1055 369 b 1039 464 1024 560 998 654 b 974 740 945 831 886 901 b 830 966 753 989 676 944 b 606 902 551 835 508 766 b 421 628 368 467 328 309 b 243 296 158 283 72 269 b 64 268 52 263 50 253 b 49 244 56 237 65 239 z m 489 660 b 523 730 564 799 618 856 b 646 884 678 915 715 929 b 764 948 801 918 827 879 b 874 810 891 721 907 640 b 925 551 938 461 949 370 b 950 367 950 364 951 361 b 820 362 688 352 559 338 b 495 331 431 323 368 314 b 398 433 436 548 489 660 z"},"f":{"x_min":0,"x_max":365,"ha":365,"o":"m 370 269 b 289 208 205 150 119 96 b 112 160 108 224 107 289 b 107 390 114 490 120 591 b 122 618 84 625 65 622 b 41 618 8 599 4 572 b -27 354 -34 124 34 -89 b 48 -134 72 -179 111 -207 b 152 -236 203 -246 249 -227 b 323 -198 360 -107 340 -33 b 318 50 246 87 169 91 b 245 140 320 193 393 248 b 415 265 389 284 370 269 z m 294 -30 b 306 -61 308 -98 296 -129 b 285 -162 257 -189 221 -174 b 151 -144 140 -39 129 26 b 128 36 126 47 125 57 b 194 62 265 40 294 -30 z"},"Q":{"x_min":0,"x_max":837,"ha":837,"o":"m 293 986 b 205 953 137 878 97 795 b 48 694 30 568 80 464 b 93 438 110 413 131 393 b 114 291 102 183 146 86 b 176 20 228 -33 294 -55 b 276 -56 258 -59 240 -64 b 190 -81 146 -111 103 -142 b 82 -159 107 -177 126 -163 b 170 -130 218 -96 274 -88 b 330 -80 385 -100 439 -113 b 541 -138 643 -126 725 -57 b 748 -38 721 -19 701 -35 b 659 -70 608 -91 553 -93 b 498 -95 445 -76 391 -64 b 608 -43 742 193 776 388 b 811 585 761 829 583 945 b 499 1000 389 1021 293 986 z m 673 448 b 667 362 642 276 600 199 b 564 131 514 64 443 30 b 357 -12 251 11 201 96 b 154 178 157 271 169 362 b 214 331 268 315 324 321 b 344 323 358 354 331 352 b 273 346 217 369 175 407 b 175 409 175 410 176 412 b 178 425 167 429 156 427 b 146 438 137 451 129 464 b 81 545 85 646 114 733 b 139 811 189 889 263 928 b 339 968 428 955 498 909 b 643 813 685 611 673 448 z"},"w":{"x_min":0,"x_max":703,"ha":703,"o":"m 730 259 b 696 262 662 263 627 265 b 632 307 632 349 629 391 b 626 441 618 510 574 543 b 531 576 474 550 444 512 b 412 471 396 414 407 362 b 427 270 502 243 583 234 b 576 187 564 139 544 96 b 529 64 496 19 455 33 b 415 47 393 99 380 136 b 364 182 358 232 352 281 b 344 342 232 304 238 250 b 238 249 238 248 238 248 b 234 195 222 142 200 94 b 191 76 179 48 158 41 b 139 34 119 48 109 63 b 84 102 85 157 85 201 b 85 258 90 315 101 371 b 113 435 2 415 -8 364 b -23 289 -26 212 -16 135 b -7 74 19 2 89 -7 b 147 -15 202 21 229 70 b 241 93 251 117 258 142 b 281 60 326 -19 412 -27 b 539 -40 597 98 617 200 b 620 210 621 221 623 231 b 656 230 689 231 719 230 b 734 230 752 258 730 259 z m 587 268 b 544 272 502 284 474 319 b 447 353 439 399 449 441 b 458 478 499 553 545 513 b 579 484 584 426 588 384 b 591 346 591 306 587 268 z"},"-":{"x_min":0,"x_max":473,"ha":473,"o":"m 386 292 b 337 290 288 286 239 282 b 189 278 138 277 89 268 b 47 260 30 200 84 198 b 130 196 179 203 226 206 b 273 209 321 212 368 217 b 390 220 417 233 422 257 b 427 281 406 292 386 292 z"},"E":{"x_min":0,"x_max":1095,"ha":1095,"o":"m 119 87 b 77 29 36 -48 55 -122 b 75 -199 159 -224 230 -230 b 314 -236 398 -219 478 -193 b 623 -145 756 -68 867 38 b 926 94 979 161 1013 236 b 1028 269 1047 311 1045 348 b 1043 381 1016 408 982 403 b 973 401 961 396 960 386 b 958 377 966 370 975 372 b 1023 378 999 305 989 284 b 974 253 955 224 935 196 b 899 146 855 102 808 62 b 715 -17 608 -81 492 -120 b 430 -141 366 -157 300 -159 b 250 -160 164 -152 150 -91 b 137 -37 174 25 205 66 b 241 113 284 154 329 191 b 379 231 433 267 490 296 b 563 310 633 336 698 371 b 718 382 741 404 734 429 b 726 452 698 457 676 451 b 626 436 576 419 528 399 b 468 384 407 377 347 383 b 298 387 252 403 216 438 b 179 472 168 522 173 570 b 189 745 353 908 530 917 b 582 920 632 900 657 852 b 681 806 684 750 687 699 b 689 667 745 688 746 715 b 748 770 747 826 725 877 b 701 930 655 963 599 973 b 486 994 362 943 273 878 b 179 810 105 711 72 600 b 53 537 49 464 83 405 b 115 349 169 314 230 297 b 259 288 289 284 319 282 b 304 271 289 260 274 247 b 217 200 162 148 119 87 z"},"s":{"x_min":0,"x_max":288,"ha":288,"o":"m 308 274 b 261 274 219 250 181 225 b 175 221 170 218 165 214 b 140 239 114 263 89 287 b 79 297 69 307 59 317 b 51 327 35 338 40 353 b 49 381 90 371 105 355 b 117 342 150 363 137 379 b 87 438 -7 389 -26 327 b -48 252 25 190 78 138 b 76 135 73 132 70 129 b 18 69 -24 -22 27 -96 b 73 -164 174 -154 224 -95 b 291 -16 256 101 199 175 b 194 181 189 186 185 192 b 219 218 259 242 300 242 b 320 242 334 273 308 274 z m 154 -102 b 118 -126 73 -94 58 -62 b 39 -24 43 19 61 56 b 72 77 85 97 101 116 b 103 114 105 112 106 110 b 134 78 156 41 168 0 b 177 -30 185 -82 154 -102 z"},">":{"x_min":0,"x_max":359,"ha":359,"o":"m 295 299 b 261 315 228 331 194 345 b 178 352 162 359 146 364 b 126 371 104 375 85 383 b 68 391 36 365 58 353 b 74 343 88 329 103 318 b 117 309 131 300 146 292 b 155 286 164 281 172 276 b 134 262 98 241 68 214 b 54 202 41 182 57 166 b 72 151 101 160 115 170 b 164 205 212 227 271 237 b 296 242 329 283 295 299 z"},"l":{"x_min":0,"x_max":297,"ha":297,"o":"m 304 253 b 276 181 259 105 227 35 b 216 12 190 -53 158 -46 b 128 -41 116 10 112 35 b 96 118 99 202 100 286 b 100 376 105 466 110 556 b 115 657 121 757 123 858 b 123 884 90 890 71 887 b 48 883 16 866 13 840 b -11 634 -29 423 -16 216 b -10 126 -5 23 54 -50 b 77 -79 112 -99 150 -92 b 187 -86 215 -56 235 -26 b 290 55 310 158 338 251 b 344 270 309 266 304 253 z"},"8":{"x_min":0,"x_max":468,"ha":468,"o":"m 142 286 b 120 247 106 204 96 161 b 81 99 75 32 101 -29 b 122 -80 166 -121 222 -128 b 277 -135 335 -111 367 -65 b 403 -15 427 55 414 117 b 404 168 376 210 342 247 b 362 311 372 379 370 446 b 368 505 360 568 316 612 b 273 653 205 659 152 636 b 88 608 54 545 50 478 b 46 398 88 338 142 286 z m 330 0 b 324 -26 316 -52 299 -73 b 276 -101 238 -99 208 -85 b 141 -56 120 25 124 92 b 127 147 140 210 166 263 b 204 229 245 197 278 165 b 324 119 345 65 330 0 z m 176 589 b 208 609 254 605 281 581 b 309 555 320 515 325 479 b 334 412 327 344 311 278 b 310 279 310 279 310 279 b 261 324 208 366 176 426 b 154 468 124 555 176 589 z"},"\\":{"x_min":0,"x_max":517,"ha":517,"o":"m 464 -160 b 399 -8 332 142 277 298 b 251 375 227 453 202 530 b 177 606 149 681 103 748 b 87 771 44 749 51 723 b 138 407 209 82 362 -210 b 387 -258 486 -210 464 -160 z"},"e":{"x_min":0,"x_max":328,"ha":328,"o":"m 329 254 b 281 190 249 116 193 57 b 182 44 161 21 143 18 b 128 15 122 27 116 40 b 99 73 95 110 95 148 b 94 179 98 209 104 240 b 164 252 225 292 230 356 b 234 396 205 429 164 428 b 117 427 70 397 42 361 b -15 287 -38 180 -20 89 b -12 45 5 -5 51 -21 b 92 -35 135 -24 171 -3 b 262 51 299 160 359 240 b 375 262 341 271 329 254 z m 146 350 b 152 357 160 367 170 366 b 197 361 179 322 170 310 b 155 291 134 280 112 274 b 119 301 129 328 146 350 z"},"b":{"x_min":0,"x_max":515,"ha":515,"o":"m 531 242 b 497 236 465 227 433 215 b 435 272 428 334 395 381 b 362 430 289 432 241 405 b 182 371 149 299 128 237 b 121 216 115 195 111 173 b 110 184 109 195 108 205 b 101 290 98 376 96 461 b 93 631 102 801 103 971 b 103 1001 62 1006 41 1001 b 11 993 -13 970 -15 939 b -27 756 -31 573 -23 390 b -19 299 -12 207 5 118 b 12 74 20 30 39 -10 b 47 -27 56 -44 77 -46 b 91 -47 110 -41 118 -28 b 119 -24 124 -13 125 -10 b 126 -2 126 6 125 14 b 125 14 125 14 125 14 b 138 118 151 228 206 319 b 224 349 283 421 317 368 b 343 325 337 259 334 211 b 333 196 332 181 330 166 b 279 135 232 99 190 58 b 150 18 102 -39 97 -98 b 92 -171 175 -183 229 -165 b 361 -118 420 53 431 180 b 464 193 498 204 533 210 b 558 214 559 247 531 242 z m 237 -68 b 221 -87 177 -128 167 -80 b 157 -34 197 15 227 45 b 256 74 288 100 322 123 b 308 54 281 -15 237 -68 z"},"%":{"x_min":0,"x_max":645,"ha":645,"o":"m 567 712 b 539 717 513 701 498 679 b 405 538 328 384 255 232 b 183 82 110 -74 70 -236 b 60 -276 125 -262 137 -239 b 214 -89 278 69 352 221 b 425 372 511 516 591 664 b 602 685 591 708 567 712 z m 151 371 b 219 367 254 429 259 488 b 263 543 247 611 178 610 b 143 609 106 590 89 561 b 69 553 50 536 50 517 b 49 459 84 375 151 371 z m 143 562 b 157 567 172 567 183 556 b 206 534 202 494 197 466 b 196 459 192 432 182 431 b 182 431 169 444 166 447 b 147 474 142 509 138 541 b 137 547 135 552 132 556 b 135 559 138 561 143 562 z m 436 119 b 414 121 385 116 368 100 b 347 96 329 81 323 60 b 304 2 317 -90 390 -102 b 454 -112 522 -57 530 6 b 537 61 491 114 436 119 z m 453 -20 b 411 -65 411 45 416 66 b 417 73 416 79 413 85 b 420 85 428 84 434 81 b 448 76 458 67 464 53 b 474 30 470 -1 453 -20 z"},"m":{"x_min":0,"x_max":778,"ha":778,"o":"m 774 233 b 760 195 746 157 729 120 b 713 88 696 47 666 27 b 651 16 637 13 630 33 b 625 48 623 66 620 83 b 611 120 608 158 605 197 b 602 233 598 270 588 305 b 583 322 577 342 564 355 b 554 365 535 370 521 374 b 453 392 413 307 390 258 b 376 227 364 194 354 161 b 350 194 346 228 338 261 b 330 297 318 335 295 365 b 278 388 251 411 220 406 b 158 396 129 306 112 255 b 104 235 98 215 92 194 b 90 257 93 321 98 384 b 99 410 64 416 46 413 b 23 409 -9 392 -12 366 b -21 298 -22 230 -17 161 b -15 129 -11 98 -4 66 b 3 34 10 -2 39 -20 b 55 -30 81 -16 89 -1 b 91 3 93 8 95 13 b 96 14 96 16 97 17 b 97 18 97 18 97 19 b 99 27 100 35 100 44 b 108 100 120 155 136 209 b 145 239 155 269 167 298 b 175 317 195 370 219 371 b 244 372 237 304 238 285 b 239 253 238 220 237 187 b 237 155 239 122 240 89 b 241 53 241 17 251 -18 b 257 -39 291 -39 307 -35 b 329 -30 352 -13 357 10 b 360 21 361 31 362 42 b 380 109 393 176 421 240 b 429 257 437 273 446 290 b 455 306 466 329 482 339 b 506 353 504 317 504 302 b 504 282 502 261 501 241 b 498 202 495 162 497 123 b 499 86 502 43 523 12 b 565 -47 656 -30 701 16 b 757 74 784 161 810 236 b 817 256 780 249 774 233 z"},"#":{"x_min":0,"x_max":854,"ha":854,"o":"m 792 390 b 741 406 687 406 633 406 b 632 406 630 406 629 406 b 649 494 671 582 692 670 b 698 695 674 709 652 708 b 626 707 600 689 593 664 b 567 577 546 489 527 400 b 505 399 484 397 462 395 b 454 395 445 394 436 393 b 444 422 452 451 460 479 b 482 556 509 631 533 707 b 540 730 518 745 498 746 b 475 747 444 734 434 712 b 389 608 354 498 327 387 b 317 387 307 387 297 386 b 242 384 180 383 129 360 b 101 346 97 308 134 308 b 159 307 185 314 209 317 b 235 320 261 322 287 324 b 295 325 304 325 312 326 b 306 299 300 271 295 244 b 292 230 290 216 287 201 b 213 190 140 176 68 158 b 45 152 43 122 70 127 b 139 139 209 148 279 155 b 271 106 264 57 259 8 b 251 -72 242 -154 257 -233 b 263 -268 317 -247 323 -222 b 343 -145 349 -65 361 14 b 368 64 376 114 385 164 b 389 164 393 164 396 164 b 425 166 453 168 482 168 b 471 105 461 41 454 -23 b 450 -60 447 -96 446 -133 b 445 -162 437 -218 461 -238 b 472 -248 492 -242 501 -232 b 524 -204 524 -159 529 -124 b 534 -85 540 -47 546 -8 b 555 51 567 110 578 170 b 597 169 616 169 635 169 b 663 168 694 164 723 168 b 748 171 786 210 744 222 b 719 228 689 226 663 226 b 638 227 614 226 589 226 b 597 267 606 307 615 348 b 666 349 716 344 767 343 b 785 342 823 380 792 390 z m 492 222 b 462 220 433 218 404 215 b 401 215 398 214 395 214 b 398 226 400 239 403 251 b 409 279 415 307 422 335 b 431 335 439 336 448 337 b 470 339 493 341 515 342 b 507 302 499 262 492 222 z"},",":{"x_min":0,"x_max":244,"ha":244,"o":"m 111 81 b 88 34 64 -14 51 -64 b 46 -81 61 -92 76 -92 b 95 -94 112 -83 122 -68 b 150 -26 170 21 190 68 b 212 121 130 118 111 81 z"},"n":{"x_min":0,"x_max":553,"ha":553,"o":"m 549 235 b 516 163 483 77 427 19 b 420 12 416 6 409 13 b 405 18 401 30 398 36 b 391 53 391 73 389 92 b 384 131 382 171 379 210 b 375 250 371 289 358 327 b 344 364 323 386 284 394 b 214 407 168 320 144 267 b 123 221 106 174 91 126 b 90 147 89 168 89 189 b 88 255 98 321 98 386 b 98 410 68 417 50 414 b 27 410 3 394 -4 370 b -22 301 -22 226 -18 156 b -16 120 -13 85 -6 50 b 0 18 7 -16 28 -43 b 36 -54 59 -49 69 -44 b 83 -38 92 -26 93 -10 b 94 -9 94 -7 94 -5 b 96 -3 98 0 98 3 b 117 85 140 168 174 246 b 189 281 207 318 234 346 b 240 351 249 363 257 358 b 263 355 262 342 262 335 b 263 315 264 294 265 274 b 267 197 252 111 285 39 b 300 5 324 -29 363 -34 b 398 -38 430 -28 455 -3 b 483 27 505 67 525 104 b 547 144 566 187 585 229 b 596 253 557 253 549 235 z"},"h":{"x_min":0,"x_max":553,"ha":553,"o":"m 546 234 b 535 190 524 147 509 105 b 496 63 480 17 452 -18 b 440 -32 414 -55 403 -29 b 396 -10 396 15 394 35 b 389 79 386 123 385 167 b 384 212 385 258 378 303 b 373 342 362 385 326 406 b 246 452 190 356 162 295 b 141 248 125 200 112 150 b 111 168 109 187 108 205 b 101 290 98 376 96 461 b 93 631 102 801 103 971 b 103 1001 62 1006 41 1001 b 11 993 -13 970 -15 939 b -27 756 -31 573 -23 390 b -19 299 -12 207 5 118 b 12 74 20 30 39 -10 b 47 -27 56 -44 77 -46 b 91 -47 110 -41 118 -28 b 119 -24 124 -13 125 -10 b 127 1 125 11 124 22 b 124 22 124 22 124 22 b 141 109 160 196 196 276 b 204 292 250 394 275 379 b 286 373 281 334 281 324 b 281 299 278 273 276 249 b 271 201 267 154 267 107 b 267 64 270 16 295 -21 b 316 -52 349 -80 389 -82 b 425 -84 457 -62 479 -35 b 507 0 524 43 540 85 b 558 134 572 185 585 236 b 591 259 551 252 546 234 z"},"z":{"x_min":0,"x_max":478,"ha":478,"o":"m 486 247 b 433 226 382 200 335 168 b 300 208 258 239 208 257 b 223 268 237 280 251 292 b 269 308 321 347 294 374 b 269 401 211 398 178 400 b 127 402 77 401 26 397 b 7 395 -8 365 18 366 b 55 367 92 367 129 364 b 162 362 199 361 231 350 b 227 348 223 346 223 345 b 208 337 193 329 178 321 b 146 304 115 286 83 269 b 65 259 44 241 46 217 b 48 194 71 188 91 187 b 154 185 207 148 246 100 b 228 84 210 67 193 49 b 152 6 116 -42 85 -92 b 55 -143 23 -206 28 -267 b 32 -323 78 -356 131 -364 b 190 -373 246 -360 296 -327 b 404 -257 450 -124 421 -1 b 408 52 386 101 355 143 b 400 173 449 198 500 218 b 526 228 511 257 486 247 z m 269 -264 b 243 -290 201 -316 163 -319 b 141 -321 116 -317 97 -304 b 72 -286 68 -257 72 -228 b 86 -130 159 -36 225 34 b 238 48 252 61 265 74 b 280 51 292 28 301 4 b 334 -82 336 -194 269 -264 z"},"B":{"x_min":0,"x_max":1392,"ha":1392,"o":"m 88 741 b 134 826 239 875 323 915 b 325 916 328 917 330 918 b 307 739 298 558 299 378 b 300 280 305 182 313 84 b 318 36 324 -13 330 -61 b 337 -108 344 -160 368 -201 b 374 -242 391 -281 424 -314 b 498 -389 615 -409 716 -397 b 928 -373 1131 -238 1246 -60 b 1356 110 1375 354 1212 497 b 1132 568 1026 607 921 623 b 843 635 762 638 681 635 b 728 663 773 692 817 724 b 864 758 908 796 948 838 b 982 875 1023 931 997 983 b 975 1030 910 1046 864 1055 b 807 1065 748 1063 691 1055 b 608 1044 526 1026 446 999 b 431 1041 343 1019 337 973 b 336 967 335 961 335 955 b 279 930 226 901 175 868 b 126 837 80 799 52 747 b 40 724 79 725 88 741 z m 769 1021 b 818 1021 883 1015 921 980 b 961 943 915 893 887 866 b 851 832 811 801 770 773 b 678 709 576 658 474 611 b 456 602 435 582 438 560 b 440 538 462 529 481 530 b 674 538 875 569 1052 473 b 1123 434 1181 373 1205 294 b 1231 213 1220 120 1188 42 b 1126 -111 983 -231 831 -285 b 748 -315 652 -326 570 -289 b 535 -274 503 -250 484 -216 b 460 -174 460 -125 471 -79 b 515 107 673 266 840 351 b 851 357 863 369 859 383 b 856 396 839 400 827 396 b 652 331 504 199 420 32 b 418 57 417 82 416 107 b 412 204 410 301 410 398 b 411 587 425 776 446 964 b 503 983 561 997 620 1007 b 669 1015 719 1020 769 1021 z"},"K":{"x_min":0,"x_max":921,"ha":921,"o":"m 168 539 b 242 563 328 537 396 505 b 467 471 510 406 538 334 b 593 191 584 25 661 -111 b 699 -177 787 -245 862 -193 b 884 -178 863 -155 843 -166 b 802 -188 780 -137 769 -108 b 755 -72 739 -38 727 -2 b 704 70 693 146 677 220 b 662 295 643 372 605 439 b 565 509 506 559 430 585 b 382 601 330 609 279 608 b 306 625 334 643 361 662 b 417 702 470 745 521 791 b 566 833 610 877 645 928 b 672 967 716 1034 689 1083 b 680 1100 643 1082 652 1065 b 667 1039 651 1008 639 984 b 626 958 610 934 592 912 b 556 865 512 825 467 786 b 422 747 375 711 326 677 b 302 659 277 643 252 627 b 235 617 217 605 199 595 b 189 592 178 589 168 585 b 172 731 181 877 186 1023 b 187 1050 152 1056 134 1053 b 111 1049 77 1031 74 1005 b 43 670 35 326 92 -6 b 100 -52 110 -98 122 -143 b 127 -163 133 -184 151 -195 b 171 -207 194 -204 214 -195 b 241 -184 248 -145 219 -139 b 219 -138 218 -137 217 -136 b 217 -130 216 -124 215 -118 b 214 -105 211 -92 209 -80 b 205 -54 202 -28 199 -3 b 192 45 186 93 182 141 b 173 238 169 335 167 432 b 167 467 167 503 168 538 b 168 538 168 538 168 539 z"},"R":{"x_min":0,"x_max":721,"ha":721,"o":"m 130 930 b 108 926 79 910 75 886 b 47 702 45 513 56 328 b 61 237 70 146 84 56 b 90 11 99 -34 108 -78 b 117 -118 128 -157 159 -185 b 186 -209 247 -170 222 -137 b 199 -108 201 -59 198 -24 b 196 -13 195 -3 194 8 b 196 33 199 58 202 83 b 210 142 219 202 230 261 b 234 279 238 298 242 316 b 314 191 381 55 488 -46 b 588 -141 765 -257 899 -155 b 920 -139 908 -107 880 -117 b 813 -142 750 -135 689 -98 b 632 -65 587 -15 549 38 b 480 135 424 239 361 340 b 459 399 544 477 607 572 b 641 626 674 685 687 748 b 699 800 701 883 641 908 b 588 929 525 900 483 870 b 432 834 395 782 362 731 b 288 615 240 484 208 350 b 195 297 185 242 177 187 b 172 249 168 310 166 372 b 159 549 169 726 179 903 b 180 927 147 933 130 930 z m 425 761 b 457 805 497 849 549 870 b 574 880 608 886 630 865 b 654 841 646 803 638 774 b 622 717 587 663 552 616 b 477 518 384 436 272 383 b 267 380 260 376 254 370 b 274 451 300 530 335 606 b 361 660 390 713 425 761 z"},"T":{"x_min":0,"x_max":765,"ha":765,"o":"m 222 857 b 188 854 102 839 90 885 b 84 906 46 893 50 875 b 59 838 92 825 127 822 b 173 818 220 823 266 831 b 361 847 453 876 548 896 b 547 895 547 894 547 892 b 529 713 521 533 527 353 b 531 265 538 178 551 91 b 558 47 566 3 578 -40 b 586 -68 596 -125 635 -120 b 647 -118 662 -111 663 -97 b 663 -96 664 -95 664 -93 b 666 -88 667 -82 667 -77 b 668 -67 668 -57 667 -47 b 666 -26 665 -4 663 17 b 659 60 655 104 652 147 b 646 231 643 315 643 399 b 643 570 655 740 661 911 b 661 913 661 915 661 918 b 728 929 797 936 865 937 b 916 937 967 932 1016 918 b 1054 907 1094 889 1107 849 b 1114 829 1155 848 1148 869 b 1122 947 1013 963 944 969 b 848 977 752 965 658 950 b 642 947 627 945 612 942 b 610 942 609 942 607 941 b 605 941 602 940 600 939 b 524 925 449 906 374 887 b 324 875 274 863 222 857 z"},"P":{"x_min":0,"x_max":790,"ha":790,"o":"m 87 864 b 59 681 48 493 50 308 b 51 218 57 127 68 37 b 73 -8 81 -52 89 -97 b 97 -135 103 -189 133 -217 b 160 -241 224 -201 197 -168 b 195 -165 193 -162 192 -158 b 207 39 224 236 269 428 b 291 523 320 617 361 705 b 395 779 453 881 543 891 b 649 903 672 767 681 691 b 682 675 684 660 684 644 b 680 646 673 647 666 643 b 569 600 493 524 426 445 b 363 370 298 280 292 179 b 290 140 299 93 331 66 b 369 33 426 33 473 43 b 582 68 663 170 708 267 b 755 365 779 477 779 586 b 780 688 760 818 674 884 b 636 913 590 931 543 924 b 497 917 455 890 422 858 b 348 788 309 687 277 592 b 216 415 189 230 171 44 b 170 57 169 71 168 84 b 161 171 159 259 159 347 b 159 522 177 696 193 870 b 199 935 94 914 87 864 z m 654 397 b 631 314 597 233 536 170 b 493 125 391 63 353 149 b 335 191 350 244 366 284 b 385 332 415 376 448 416 b 512 495 585 573 679 615 b 681 616 683 618 685 619 b 685 544 674 470 654 397 z"},"|":{"x_min":0,"x_max":217,"ha":217,"o":"m 159 321 b 157 399 153 476 148 553 b 146 593 144 632 141 671 b 137 708 138 749 124 784 b 114 811 70 786 65 767 b 54 730 57 687 56 649 b 54 608 54 568 54 528 b 53 450 52 371 52 293 b 51 135 48 -23 52 -180 b 52 -210 91 -215 113 -209 b 141 -202 166 -180 166 -150 b 170 7 165 165 159 321 z"},"t":{"x_min":0,"x_max":297,"ha":297,"o":"m 1030 741 b 972 757 913 765 853 770 b 729 780 603 777 478 772 b 359 767 240 757 120 747 b 122 784 123 821 124 858 b 124 884 91 890 72 887 b 49 883 16 866 13 840 b 9 806 6 772 2 737 b -95 729 -192 721 -289 714 b -360 710 -432 705 -503 707 b -556 709 -643 708 -673 760 b -683 777 -718 759 -708 743 b -687 706 -645 692 -605 685 b -545 675 -484 675 -424 677 b -299 681 -175 692 -51 703 b -34 704 -18 705 -1 707 b -17 544 -25 378 -15 216 b -9 126 -4 23 54 -50 b 78 -79 112 -99 151 -92 b 188 -86 216 -56 236 -26 b 291 55 311 158 339 251 b 345 270 310 266 305 253 b 276 181 260 105 227 35 b 217 12 191 -53 159 -46 b 129 -41 117 10 113 35 b 97 118 100 202 100 286 b 101 376 105 466 110 556 b 114 610 117 663 119 717 b 315 733 511 747 707 743 b 778 742 850 739 920 728 b 962 721 1069 713 1072 654 b 1073 632 1114 645 1113 665 b 1111 709 1067 730 1030 741 z"},"M":{"x_min":0,"x_max":1313,"ha":1313,"o":"m 132 975 b 108 971 74 953 71 926 b 48 733 47 536 54 342 b 57 247 64 152 75 58 b 81 9 87 -39 96 -88 b 103 -126 106 -175 152 -184 b 169 -187 198 -174 200 -154 b 201 -150 201 -145 201 -141 b 202 -139 203 -137 203 -135 b 228 103 258 341 325 571 b 342 629 361 686 383 742 b 394 768 405 794 422 815 b 433 830 469 866 488 848 b 503 833 502 793 504 774 b 508 742 513 711 515 680 b 520 619 522 559 523 498 b 526 354 534 210 544 66 b 549 5 660 43 658 97 b 657 101 657 105 657 109 b 680 234 703 360 735 484 b 763 596 798 707 855 809 b 872 840 922 939 966 915 b 971 913 976 903 981 892 b 986 877 988 864 992 846 b 997 823 1000 800 1002 777 b 1018 649 1020 518 1024 389 b 1028 255 1032 120 1046 -13 b 1051 -67 1058 -121 1074 -173 b 1102 -261 1207 -325 1291 -266 b 1318 -247 1293 -218 1267 -233 b 1223 -258 1197 -175 1187 -146 b 1186 -143 1185 -141 1184 -138 b 1184 -136 1184 -135 1183 -133 b 1182 -125 1180 -116 1178 -107 b 1171 -56 1166 -4 1163 47 b 1154 186 1149 325 1138 464 b 1128 589 1119 720 1077 840 b 1065 875 1050 911 1020 933 b 1003 945 989 949 971 951 b 920 954 886 920 859 882 b 784 775 739 650 705 525 b 683 442 665 359 649 275 b 645 357 639 440 631 522 b 626 588 620 654 607 719 b 601 749 594 779 582 808 b 573 832 562 863 540 879 b 498 908 437 877 405 847 b 361 804 341 740 321 684 b 278 561 247 434 223 307 b 208 224 196 141 186 58 b 185 74 184 91 183 107 b 177 199 174 291 171 383 b 167 571 177 757 186 945 b 187 972 151 978 132 975 z"},"g":{"x_min":0,"x_max":491,"ha":491,"o":"m 503 257 b 449 233 399 200 351 166 b 349 233 346 301 344 369 b 343 399 304 405 281 399 b 269 396 258 390 249 382 b 245 384 241 386 237 388 b 200 403 158 394 124 377 b 54 342 5 277 -16 202 b -34 138 -39 30 31 -7 b 102 -45 160 29 183 87 b 202 132 213 179 226 227 b 227 177 230 126 232 76 b 207 56 183 36 160 15 b 66 -71 -21 -182 -42 -312 b -52 -371 -39 -431 11 -469 b 54 -502 112 -507 162 -488 b 229 -462 270 -398 295 -334 b 321 -267 336 -198 344 -127 b 353 -42 354 44 352 130 b 405 167 460 201 515 232 b 536 244 525 267 503 257 z m 167 152 b 156 116 144 77 122 46 b 111 31 106 23 95 41 b 87 53 84 67 83 81 b 75 145 87 212 119 268 b 132 288 147 310 169 322 b 183 330 201 324 216 314 b 196 261 183 206 167 152 z m 225 -225 b 217 -281 207 -341 182 -392 b 159 -440 113 -480 60 -451 b 8 -423 -9 -365 0 -309 b 17 -194 92 -94 174 -15 b 193 3 213 21 234 38 b 235 12 235 -14 235 -40 b 236 -101 233 -164 225 -225 z"},"j":{"x_min":0,"x_max":259,"ha":259,"o":"m 271 257 b 217 233 167 200 119 166 b 117 233 114 301 112 369 b 111 399 72 405 49 399 b 20 391 -5 368 -6 338 b -10 250 -4 163 0 76 b -25 56 -49 36 -72 15 b -166 -71 -253 -182 -274 -312 b -284 -371 -271 -431 -221 -469 b -178 -502 -120 -507 -70 -488 b -3 -462 38 -398 63 -334 b 89 -267 104 -198 112 -127 b 121 -42 122 44 120 130 b 173 167 228 201 283 232 b 304 244 293 267 271 257 z m -7 -225 b -15 -281 -25 -341 -50 -392 b -73 -440 -119 -480 -172 -451 b -224 -423 -241 -365 -232 -309 b -215 -194 -140 -94 -58 -15 b -39 3 -19 21 2 38 b 3 12 3 -14 3 -40 b 4 -101 1 -164 -7 -225 z m 42 455 b 45 454 49 455 53 456 b 57 457 61 459 65 462 b 91 485 117 509 135 539 b 146 557 167 597 142 613 b 116 629 82 598 68 579 b 60 569 54 558 48 547 b 43 559 36 570 28 578 b 11 594 -16 591 -29 571 b -42 552 -36 518 -25 498 b -11 475 17 460 42 455 z"},"i":{"x_min":0,"x_max":274,"ha":274,"o":"m 270 225 b 248 167 223 110 193 56 b 181 33 168 0 144 -14 b 113 -33 104 3 99 26 b 87 82 93 139 97 195 b 99 226 103 256 106 286 b 109 317 117 353 110 384 b 98 431 30 411 13 378 b -8 339 -12 293 -16 250 b -20 210 -22 170 -21 130 b -18 65 -3 -22 66 -47 b 130 -69 180 -38 212 18 b 250 84 280 155 307 227 b 314 247 276 240 270 225 z m 63 460 b 67 459 73 460 79 462 b 83 463 87 464 90 466 b 119 487 149 508 170 537 b 183 555 207 594 179 609 b 153 622 121 597 104 579 b 96 570 89 560 82 550 b 78 564 73 577 64 586 b 49 604 24 602 9 585 b -5 567 -5 535 2 515 b 11 490 38 469 63 460 z"},"y":{"x_min":0,"x_max":551,"ha":551,"o":"m 563 257 b 509 233 460 200 412 166 b 410 233 406 301 404 369 b 403 399 364 405 341 399 b 321 393 303 381 293 363 b 292 361 291 359 290 357 b 290 356 290 355 289 355 b 288 351 287 348 287 344 b 274 293 260 243 240 194 b 230 168 218 143 206 118 b 196 98 180 56 155 52 b 104 43 94 138 89 169 b 81 228 87 287 88 346 b 89 372 56 378 37 375 b 16 371 -18 354 -20 329 b -26 255 -28 176 -4 105 b 17 41 73 -22 147 6 b 209 29 238 96 263 153 b 271 172 279 192 286 212 b 288 167 290 121 292 76 b 268 56 243 36 220 15 b 126 -71 39 -182 18 -312 b 9 -371 22 -431 71 -469 b 114 -502 173 -507 222 -488 b 289 -462 330 -398 355 -334 b 381 -267 397 -198 404 -127 b 413 -42 414 44 413 130 b 465 167 520 201 575 232 b 596 244 586 267 563 257 z m 285 -225 b 277 -281 268 -341 243 -392 b 220 -440 174 -480 120 -451 b 68 -423 51 -365 60 -309 b 77 -194 153 -94 235 -15 b 254 3 273 21 294 38 b 295 12 295 -14 296 -40 b 296 -101 293 -164 285 -225 z"},"@":{"x_min":0,"x_max":854,"ha":854,"o":"m 726 582 b 589 720 361 676 222 566 b 86 458 13 281 69 111 b 138 -95 391 -142 574 -76 b 585 -72 600 -63 598 -49 b 597 -36 581 -32 570 -35 b 492 -62 406 -78 324 -57 b 256 -40 191 1 152 60 b 69 186 114 350 203 460 b 291 568 447 641 583 581 b 649 551 697 494 711 422 b 724 353 721 273 691 208 b 678 178 657 142 627 127 b 598 113 566 129 545 150 b 481 214 508 319 515 397 b 517 415 508 423 496 426 b 471 472 396 454 360 437 b 300 408 246 343 237 277 b 233 245 237 207 265 186 b 297 163 344 174 373 197 b 388 209 401 224 413 240 b 412 237 412 235 412 232 b 408 185 419 139 447 101 b 510 19 621 25 695 90 b 764 152 797 238 803 329 b 809 420 792 516 726 582 z m 446 408 b 413 371 385 331 356 291 b 349 281 342 270 334 261 b 333 259 332 257 330 256 b 330 256 330 256 330 257 b 326 266 325 277 326 286 b 329 320 351 355 377 377 b 392 390 428 422 452 414 b 450 412 448 410 446 408 z"},".":{"x_min":0,"x_max":168,"ha":168,"o":"m 115 21 b 108 39 80 28 71 19 b 58 4 52 -18 50 -37 b 46 -76 109 -63 113 -34 b 116 -17 122 5 115 21 z"},"p":{"x_min":0,"x_max":481,"ha":481,"o":"m 497 258 b 466 248 434 238 403 226 b 400 272 390 319 362 355 b 330 394 277 413 234 381 b 188 348 171 286 155 234 b 130 153 113 70 97 -13 b 97 7 97 28 97 48 b 98 146 104 245 102 344 b 102 400 -3 369 -8 326 b -20 226 -20 123 -17 22 b -16 -27 -14 -76 -9 -125 b -5 -166 -6 -234 27 -263 b 43 -277 69 -264 79 -249 b 89 -232 93 -213 96 -192 b 119 -100 135 -7 155 86 b 165 132 176 178 190 223 b 203 266 216 321 249 353 b 259 363 275 372 284 355 b 288 348 289 337 290 329 b 294 306 297 283 298 260 b 300 234 300 207 298 180 b 258 159 218 133 191 99 b 167 66 151 3 185 -29 b 235 -77 317 -28 351 15 b 390 64 403 127 404 187 b 404 190 404 192 404 194 b 436 206 468 217 500 227 b 522 234 524 267 497 258 z m 244 30 b 244 30 243 30 243 30 b 243 31 244 31 245 31 b 244 31 243 30 244 30 z m 291 130 b 284 97 275 58 248 36 b 247 34 244 32 242 31 b 237 32 232 35 228 38 b 212 53 221 77 233 92 b 249 112 270 128 293 142 b 292 138 292 134 291 130 z"},"X":{"x_min":0,"x_max":759,"ha":759,"o":"m 54 794 b 70 777 78 750 88 729 b 99 707 109 685 119 664 b 140 618 156 569 172 521 b 202 426 232 332 271 240 b 272 239 272 238 273 237 b 235 172 200 106 167 38 b 130 -41 96 -121 65 -203 b 61 -213 73 -218 81 -218 b 92 -218 102 -210 105 -200 b 158 -64 219 70 291 197 b 368 32 485 -134 644 -226 b 736 -279 879 -281 942 -182 b 962 -150 910 -144 892 -159 b 826 -214 744 -174 686 -127 b 616 -70 556 -1 506 74 b 454 151 411 232 372 317 b 371 320 369 323 368 326 b 424 413 485 496 552 575 b 607 639 666 701 729 758 b 750 778 723 797 705 780 b 569 657 452 516 351 364 b 322 433 295 503 266 572 b 246 620 224 666 197 710 b 184 731 169 750 152 768 b 133 789 108 801 88 820 b 74 834 38 811 54 794 z"},"*":{"x_min":0,"x_max":285,"ha":285,"o":"m 219 584 b 207 582 195 581 183 581 b 198 596 212 611 226 627 b 242 646 210 654 198 640 b 188 628 177 617 166 605 b 166 621 166 637 166 653 b 167 671 132 660 132 644 b 131 632 131 621 131 610 b 121 620 112 629 102 639 b 89 652 55 630 70 615 b 81 604 92 592 103 581 b 91 581 79 580 67 577 b 44 573 43 542 70 547 b 84 550 97 550 111 551 b 96 535 82 520 69 503 b 53 481 87 472 99 489 b 109 502 119 514 130 526 b 130 506 130 486 131 466 b 131 446 169 458 169 476 b 168 489 168 502 168 515 b 174 508 179 502 185 496 b 198 483 232 505 217 520 b 208 530 199 540 189 550 b 197 550 204 551 212 552 b 221 553 233 559 235 569 b 236 578 229 585 219 584 z"},"Y":{"x_min":0,"x_max":1203,"ha":1203,"o":"m 351 363 b 316 427 290 496 269 567 b 248 637 230 709 207 779 b 197 809 189 846 166 869 b 145 890 114 890 88 881 b 66 874 50 858 50 835 b 50 813 90 826 91 845 b 103 832 105 803 108 788 b 115 754 121 719 127 684 b 138 617 153 551 171 486 b 189 422 211 358 246 301 b 276 252 315 203 371 184 b 507 136 620 258 681 364 b 710 415 729 474 747 530 b 766 588 785 645 805 702 b 813 726 856 874 897 847 b 909 839 914 817 920 805 b 926 791 931 776 935 762 b 945 727 953 692 959 656 b 972 570 979 484 982 398 b 872 297 774 182 698 53 b 628 -65 567 -223 607 -361 b 625 -427 680 -478 751 -478 b 830 -478 897 -420 943 -361 b 1033 -247 1071 -102 1088 40 b 1108 204 1108 370 1081 533 b 1068 610 1052 688 1021 760 b 1000 812 956 891 888 884 b 825 878 800 799 780 750 b 754 686 733 622 709 557 b 685 493 652 433 615 375 b 585 328 539 263 479 256 b 419 249 376 318 351 363 z m 95 850 b 96 850 97 850 98 850 b 97 850 96 850 95 850 z m 981 215 b 976 82 960 -55 916 -181 b 897 -235 870 -289 835 -334 b 806 -370 776 -409 728 -381 b 665 -343 666 -253 674 -190 b 683 -117 710 -48 745 16 b 807 132 890 237 983 330 b 983 291 983 253 981 215 z"},"c":{"x_min":0,"x_max":358,"ha":358,"o":"m 357 236 b 321 173 284 110 233 57 b 211 33 177 -3 140 9 b 113 19 99 49 92 75 b 76 144 85 219 113 284 b 122 307 135 336 155 353 b 192 387 214 327 220 300 b 224 277 265 291 263 311 b 258 342 251 375 223 393 b 193 413 154 408 122 397 b 42 369 -2 288 -18 210 b -33 138 -31 33 32 -17 b 96 -69 183 -34 237 15 b 304 74 348 154 390 231 b 402 252 366 252 357 236 z"},"!":{"x_min":0,"x_max":226,"ha":226,"o":"m 176 49 b 167 175 156 301 150 427 b 147 488 144 550 141 612 b 140 651 142 738 96 752 b 85 755 73 747 68 739 b 68 738 68 738 67 738 b 66 736 66 734 65 732 b 53 680 55 622 53 569 b 50 508 50 446 50 385 b 51 263 56 142 69 20 b 76 -37 179 -1 176 49 z m 165 -59 b 153 -38 123 -50 110 -63 b 91 -80 92 -112 98 -135 b 103 -156 124 -159 142 -152 b 161 -145 175 -129 170 -109 b 165 -93 173 -73 165 -59 z"},"/":{"x_min":0,"x_max":590,"ha":590,"o":"m 511 748 b 484 753 455 737 441 714 b 397 641 360 562 322 486 b 286 412 251 337 217 262 b 183 187 152 110 121 34 b 91 -43 57 -123 50 -206 b 47 -238 89 -225 100 -208 b 147 -138 178 -58 212 19 b 245 96 280 173 314 250 b 348 325 384 400 420 474 b 458 549 499 623 535 699 b 546 721 537 744 511 748 z"},"[":{"x_min":0,"x_max":358,"ha":358,"o":"m 263 -160 b 249 -164 229 -176 216 -167 b 204 -160 197 -140 193 -127 b 179 -86 176 -39 173 5 b 168 102 165 199 160 297 b 155 395 151 494 149 592 b 148 641 147 690 146 739 b 146 759 143 781 147 802 b 150 811 153 816 158 824 b 159 825 159 826 160 827 b 167 828 174 827 181 825 b 196 819 225 842 205 852 b 176 866 134 861 109 840 b 80 815 73 776 67 740 b 52 644 49 544 50 447 b 52 348 56 249 60 150 b 63 57 59 -39 79 -131 b 89 -173 102 -218 142 -241 b 190 -268 249 -245 291 -216 b 326 -192 304 -148 263 -160 z"},"6":{"x_min":0,"x_max":505,"ha":505,"o":"m 111 -31 b 148 -86 208 -130 277 -127 b 406 -123 485 27 444 142 b 421 207 354 236 288 232 b 239 229 191 207 154 174 b 141 271 147 373 183 466 b 200 510 225 555 264 583 b 301 610 395 631 404 564 b 407 544 443 556 441 573 b 436 631 364 651 315 650 b 250 648 191 605 152 557 b 65 450 41 305 53 171 b 59 103 72 26 111 -31 z m 268 196 b 316 203 369 187 393 142 b 431 74 395 -108 288 -65 b 210 -33 176 52 161 132 b 187 166 224 190 268 196 z"},"r":{"x_min":0,"x_max":417,"ha":417,"o":"m 425 264 b 399 247 364 231 334 249 b 312 263 290 283 277 306 b 261 335 228 422 179 390 b 159 376 150 348 142 326 b 130 292 119 258 110 223 b 104 204 100 185 95 166 b 95 176 95 185 95 195 b 95 263 103 330 107 397 b 109 424 72 430 53 427 b 29 423 -2 405 -7 378 b -21 308 -22 236 -19 165 b -17 130 -14 95 -8 60 b -2 28 4 -10 25 -35 b 45 -58 86 -31 93 -9 b 94 -6 95 -2 96 2 b 99 5 101 7 101 11 b 113 73 125 136 141 198 b 149 227 157 256 167 284 b 171 299 176 314 182 329 b 182 329 182 329 182 329 b 182 326 182 324 182 323 b 183 306 187 289 193 273 b 204 242 224 215 256 203 b 318 182 395 205 446 244 b 467 260 442 275 425 264 z"},"2":{"x_min":0,"x_max":534,"ha":534,"o":"m 123 -135 b 169 -129 211 -105 246 -74 b 259 -77 272 -81 285 -84 b 342 -99 399 -113 458 -112 b 481 -112 497 -76 467 -77 b 402 -78 340 -59 278 -43 b 282 -39 286 -35 290 -31 b 380 74 424 215 434 351 b 438 418 438 489 412 552 b 389 609 341 662 276 666 b 148 676 22 481 132 385 b 146 373 180 395 164 409 b 86 479 163 649 269 632 b 323 622 337 555 343 509 b 349 458 348 407 342 357 b 332 256 307 156 257 67 b 238 35 217 2 190 -25 b 150 -20 110 -21 78 -45 b 60 -59 45 -81 52 -104 b 60 -135 97 -138 123 -135 z m 118 -60 b 129 -56 141 -56 152 -56 b 146 -61 139 -65 131 -69 b 126 -72 110 -83 104 -82 b 87 -79 110 -62 118 -60 z"},"{":{"x_min":0,"x_max":475,"ha":475,"o":"m 398 -173 b 349 -196 311 -127 302 -89 b 287 -31 287 31 279 90 b 271 149 269 213 250 268 b 241 295 223 317 199 331 b 191 335 183 338 175 340 b 221 404 262 472 292 546 b 311 592 324 638 333 688 b 337 713 341 740 347 765 b 350 779 362 842 385 816 b 394 805 424 821 415 835 b 388 878 338 842 316 813 b 278 761 265 696 245 636 b 205 518 139 415 61 319 b 49 305 42 275 66 267 b 83 262 97 260 115 262 b 127 264 132 263 142 253 b 163 232 164 198 168 170 b 177 102 185 33 197 -35 b 206 -90 220 -155 266 -190 b 306 -220 369 -228 412 -202 b 436 -188 424 -161 398 -173 z"},"9":{"x_min":0,"x_max":582,"ha":582,"o":"m 394 589 b 387 587 382 584 377 580 b 351 612 304 629 264 621 b 202 609 151 561 114 512 b 74 459 44 393 51 325 b 58 260 110 204 179 221 b 239 236 275 294 303 344 b 335 399 357 459 383 517 b 385 522 394 551 399 553 b 403 550 405 546 407 541 b 410 533 413 525 415 517 b 422 487 426 456 429 424 b 436 354 435 282 425 212 b 420 172 411 133 400 94 b 391 65 382 32 364 6 b 350 -14 330 -22 305 -22 b 270 -21 246 0 220 22 b 199 40 153 16 164 -12 b 185 -67 252 -104 309 -102 b 378 -100 437 -56 469 4 b 499 60 513 128 523 191 b 533 258 536 330 523 397 b 512 456 495 525 450 567 b 434 583 418 597 394 589 z m 268 365 b 253 339 234 310 209 292 b 201 287 191 279 181 283 b 169 288 161 309 157 320 b 135 388 166 454 208 507 b 225 529 244 556 271 568 b 300 581 331 578 349 549 b 350 547 351 545 353 544 b 351 540 349 536 347 531 b 322 476 300 418 268 365 z"}," ":{"x_min":0,"x_max":342,"ha":342,"o":""},"I":{"x_min":0,"x_max":492,"ha":492,"o":"m 78 -233 b 123 -213 170 -197 217 -184 b 223 -219 230 -253 238 -287 b 250 -332 321 -303 321 -264 b 322 -231 321 -197 319 -163 b 355 -157 390 -154 426 -150 b 440 -148 458 -139 461 -123 b 465 -108 451 -101 438 -101 b 397 -101 357 -105 316 -113 b 314 -77 312 -40 310 -4 b 304 82 302 168 299 254 b 294 425 296 595 303 765 b 306 826 309 886 313 947 b 336 948 360 950 383 950 b 405 951 420 985 391 984 b 366 983 340 982 314 980 b 316 1005 318 1031 320 1056 b 321 1083 284 1090 265 1087 b 242 1083 207 1064 204 1037 b 202 1014 199 990 197 966 b 160 960 123 953 86 945 b 63 940 62 909 89 914 b 124 922 159 929 194 934 b 167 624 170 311 197 1 b 201 -46 205 -94 211 -141 b 160 -158 110 -179 64 -203 b 38 -217 52 -245 78 -233 z"},"H":{"x_min":0,"x_max":1518,"ha":1518,"o":"m 90 338 b 80 356 42 337 51 319 b 89 244 173 219 252 216 b 347 214 444 230 538 247 b 544 249 550 250 556 251 b 559 170 564 90 574 9 b 585 -82 600 -175 634 -261 b 646 -290 705 -260 695 -236 b 697 -144 687 -53 681 38 b 675 117 672 196 671 275 b 815 308 958 347 1104 372 b 1155 380 1205 387 1256 391 b 1252 223 1257 55 1275 -112 b 1280 -158 1285 -205 1294 -251 b 1302 -289 1315 -323 1349 -344 b 1370 -356 1425 -326 1407 -300 b 1389 -274 1385 -248 1383 -216 b 1380 -176 1378 -135 1375 -95 b 1370 -13 1368 69 1366 150 b 1365 232 1366 313 1369 395 b 1390 393 1411 389 1431 380 b 1450 372 1484 403 1460 413 b 1432 424 1401 430 1370 432 b 1373 502 1378 572 1384 642 b 1393 734 1405 826 1415 918 b 1422 982 1319 960 1310 911 b 1277 753 1263 589 1257 427 b 1237 424 1217 422 1198 419 b 1106 408 1015 389 925 368 b 840 349 755 327 670 308 b 670 311 670 314 670 316 b 670 499 684 682 707 863 b 715 931 602 909 593 856 b 561 670 550 479 555 290 b 555 288 555 286 555 283 b 493 271 430 261 367 255 b 272 246 141 236 90 338 z"},"4":{"x_min":0,"x_max":588,"ha":588,"o":"m 94 139 b 129 136 164 148 192 168 b 226 192 248 227 264 265 b 316 271 368 273 419 284 b 420 273 420 261 421 249 b 425 182 430 115 439 48 b 443 15 448 -17 453 -49 b 458 -77 460 -119 483 -139 b 491 -147 508 -142 514 -134 b 534 -107 535 -75 537 -42 b 539 -7 537 29 535 64 b 532 131 529 199 526 267 b 522 403 527 540 524 676 b 523 727 426 700 423 659 b 412 546 413 431 418 317 b 371 307 323 304 275 299 b 283 325 289 351 294 375 b 313 468 324 562 312 657 b 309 678 273 665 274 647 b 280 563 276 477 255 395 b 246 360 234 325 220 291 b 160 279 81 251 54 192 b 40 162 66 142 94 139 z m 139 231 b 159 242 181 250 204 255 b 191 229 174 203 149 187 b 138 181 105 166 94 181 b 83 196 131 226 139 231 z"},"D":{"x_min":0,"x_max":1057,"ha":1057,"o":"m 128 -21 b 103 -78 82 -150 113 -209 b 140 -262 202 -285 259 -289 b 332 -295 402 -278 469 -250 b 592 -198 698 -102 784 -1 b 868 100 933 216 977 341 b 1023 470 1045 621 1009 756 b 974 886 864 970 737 1001 b 594 1035 445 1007 318 935 b 257 899 201 855 151 806 b 102 758 56 701 50 630 b 48 608 86 615 88 633 b 95 692 131 739 172 780 b 211 820 255 856 302 887 b 400 951 517 989 635 978 b 748 968 859 901 903 793 b 937 706 937 608 921 516 b 788 534 655 463 545 396 b 485 359 427 318 372 273 b 371 299 371 325 371 352 b 372 514 385 675 405 837 b 414 904 303 882 294 830 b 264 658 253 481 259 307 b 260 262 262 218 265 173 b 254 162 244 150 233 138 b 191 90 153 37 128 -21 z m 271 111 b 273 91 275 70 278 50 b 284 8 290 -34 299 -75 b 306 -108 316 -145 355 -150 b 378 -153 411 -134 402 -107 b 391 -75 390 -45 387 -11 b 384 28 381 67 379 107 b 377 145 375 184 374 223 b 420 266 471 305 522 340 b 579 378 638 411 700 439 b 767 470 839 491 913 478 b 910 464 907 450 903 435 b 846 221 717 20 537 -112 b 460 -169 351 -227 251 -199 b 131 -166 194 -4 240 67 b 249 82 260 97 271 111 z"},"^":{"x_min":0,"x_max":354,"ha":354,"o":"m 301 493 b 275 548 252 665 171 658 b 129 654 96 619 75 585 b 59 558 43 519 53 488 b 57 476 78 481 85 487 b 103 503 115 524 129 545 b 135 554 140 563 147 571 b 150 575 153 578 156 581 b 170 567 177 542 182 526 b 190 500 197 473 210 449 b 234 407 322 449 301 493 z m 163 588 b 167 591 169 588 163 588 z"},"0":{"x_min":0,"x_max":540,"ha":540,"o":"m 96 -25 b 131 -80 190 -116 256 -112 b 329 -107 381 -53 417 6 b 495 133 510 288 465 429 b 446 487 417 544 367 581 b 321 615 257 644 204 611 b 146 575 112 499 115 430 b 102 424 92 416 88 406 b 58 333 48 253 50 174 b 52 108 61 33 96 -25 z m 214 580 b 266 621 314 550 336 511 b 358 470 372 426 381 382 b 403 273 400 160 349 59 b 336 32 311 -25 276 -30 b 236 -35 200 5 184 36 b 157 88 152 152 151 210 b 150 247 154 284 160 320 b 176 305 198 293 224 287 b 241 283 263 310 240 316 b 206 325 183 347 170 374 b 171 383 173 393 175 402 b 179 421 169 431 155 435 b 152 489 175 549 214 580 z"},"F":{"x_min":0,"x_max":1090,"ha":1090,"o":"m 322 871 b 239 896 138 893 74 827 b 48 801 34 759 79 746 b 122 734 175 745 217 754 b 264 763 311 777 358 792 b 480 727 564 592 616 469 b 630 437 643 406 655 373 b 655 361 656 349 656 336 b 599 319 542 299 486 277 b 462 268 475 241 500 250 b 552 270 604 288 658 305 b 663 198 674 92 694 -11 b 702 -54 712 -96 725 -137 b 737 -175 749 -218 793 -225 b 823 -230 875 -188 836 -164 b 833 -162 830 -146 829 -142 b 825 -131 822 -119 819 -107 b 819 -103 818 -100 817 -97 b 810 -41 801 14 790 69 b 789 78 788 86 787 94 b 778 175 773 255 769 336 b 829 351 890 363 951 374 b 976 378 977 412 948 407 b 888 396 828 383 768 368 b 768 375 768 382 767 389 b 762 569 769 749 786 929 b 805 934 824 939 843 944 b 962 974 1082 997 1205 1008 b 1265 1013 1327 1018 1387 1013 b 1443 1008 1501 988 1527 934 b 1536 914 1576 934 1567 953 b 1528 1034 1435 1048 1354 1048 b 1255 1048 1156 1038 1058 1022 b 967 1007 878 986 789 962 b 790 968 790 973 791 978 b 798 1046 686 1024 679 971 b 677 957 675 943 674 929 b 607 909 541 888 476 866 b 450 858 423 848 397 839 b 374 852 349 863 322 871 z m 183 781 b 161 778 135 774 112 778 b 99 780 90 785 101 799 b 107 807 121 814 130 818 b 167 835 212 834 251 828 b 273 825 295 819 315 812 b 271 798 227 787 183 781 z m 528 851 b 575 866 623 881 670 896 b 657 766 652 635 652 504 b 601 624 536 744 431 817 b 464 829 496 840 528 851 z"},"`":{"x_min":0,"x_max":182,"ha":182,"o":"m 131 600 b 124 633 108 661 87 687 b 76 700 42 681 52 665 b 66 641 76 615 82 587 b 89 562 136 578 131 600 z"},"k":{"x_min":0,"x_max":520,"ha":520,"o":"m 515 239 b 491 194 466 147 427 114 b 395 86 346 68 305 86 b 261 105 225 142 194 176 b 180 192 166 206 151 217 b 189 234 224 255 259 280 b 284 299 379 375 325 409 b 301 423 263 414 239 405 b 212 395 187 379 165 360 b 139 336 119 308 103 278 b 99 339 97 400 96 461 b 93 631 102 801 103 971 b 103 1001 62 1006 41 1001 b 11 993 -13 970 -15 939 b -27 756 -31 573 -23 390 b -19 299 -12 207 5 118 b 12 74 20 30 39 -10 b 47 -27 56 -44 77 -46 b 91 -47 110 -41 118 -28 b 119 -24 124 -13 125 -10 b 127 1 125 11 124 22 b 123 41 121 61 119 80 b 118 87 118 94 117 101 b 126 90 136 80 146 70 b 193 28 257 10 319 17 b 437 30 507 134 554 232 b 566 258 524 257 515 239 z m 128 253 b 139 277 153 300 170 320 b 184 337 201 352 219 363 b 237 374 268 389 289 382 b 331 370 220 291 205 283 b 180 271 155 260 128 253 z"},"u":{"x_min":0,"x_max":575,"ha":575,"o":"m 570 225 b 548 167 523 110 494 56 b 481 33 468 0 445 -14 b 414 -33 405 3 400 26 b 387 82 393 139 397 195 b 399 226 403 256 406 286 b 409 317 418 353 410 384 b 399 431 331 411 313 378 b 312 376 311 374 311 372 b 310 371 309 370 309 369 b 283 312 265 252 245 192 b 235 161 224 130 210 101 b 203 86 196 72 188 58 b 182 48 168 24 155 21 b 133 17 114 57 109 73 b 99 101 98 133 98 163 b 96 232 103 301 110 370 b 117 441 4 417 -7 363 b -23 282 -29 187 -12 106 b 2 36 45 -50 132 -26 b 204 -6 238 68 263 132 b 269 147 274 162 280 177 b 279 161 279 145 280 130 b 282 65 297 -22 366 -47 b 431 -69 481 -38 512 18 b 550 84 581 155 607 227 b 614 247 577 240 570 225 z"},"]":{"x_min":0,"x_max":299,"ha":299,"o":"m 247 204 b 239 375 225 549 201 719 b 195 759 190 810 163 843 b 138 872 98 870 66 858 b 46 852 43 823 68 830 b 79 833 98 841 105 825 b 107 821 106 808 106 802 b 107 780 109 757 111 734 b 115 689 116 643 118 597 b 123 507 129 418 135 328 b 141 239 147 149 145 60 b 143 15 140 -30 134 -74 b 131 -95 128 -117 122 -138 b 120 -145 118 -153 114 -159 b 111 -163 99 -169 110 -165 b 90 -172 68 -186 66 -210 b 65 -230 84 -243 104 -240 b 147 -234 182 -212 205 -174 b 226 -138 231 -94 237 -54 b 250 32 250 118 247 204 z"},"U":{"x_min":0,"x_max":918,"ha":918,"o":"m 717 966 b 697 951 691 926 684 903 b 674 871 667 837 662 803 b 652 740 648 676 645 612 b 637 481 635 349 648 217 b 648 217 648 217 648 217 b 633 184 617 152 599 121 b 561 52 496 -62 402 -55 b 305 -47 253 63 226 144 b 187 260 171 383 162 505 b 157 566 153 626 148 687 b 145 717 142 749 135 779 b 130 802 126 830 99 838 b 80 844 37 823 58 800 b 61 796 55 767 54 761 b 53 745 52 729 52 713 b 51 682 50 650 50 618 b 50 555 51 492 54 429 b 62 307 77 180 125 67 b 168 -35 258 -119 374 -117 b 484 -115 560 -25 613 60 b 629 85 644 111 658 138 b 673 32 702 -75 754 -167 b 783 -219 887 -168 865 -113 b 827 -15 795 83 776 187 b 765 249 758 311 753 374 b 753 375 754 377 754 378 b 790 493 819 612 826 732 b 829 789 828 846 811 901 b 799 941 767 1004 717 966 z m 782 749 b 780 667 765 586 746 507 b 742 612 740 717 746 822 b 747 849 750 876 754 903 b 754 904 755 907 755 910 b 757 907 760 903 761 900 b 780 852 783 800 782 749 z"},"o":{"x_min":0,"x_max":357,"ha":357,"o":"m 369 266 b 344 253 316 242 287 232 b 286 237 285 243 284 248 b 264 333 196 463 89 438 b 0 418 -62 304 0 231 b -12 170 -17 103 4 44 b 24 -15 84 -39 142 -27 b 247 -5 295 103 290 202 b 322 212 352 225 382 240 b 404 252 392 278 369 266 z m 208 151 b 200 118 188 79 160 57 b 131 36 107 65 101 93 b 93 122 94 152 96 181 b 128 176 161 178 192 181 b 199 182 206 183 213 184 b 212 173 210 162 208 151 z m 215 215 b 181 210 146 209 113 214 b 109 215 104 216 100 217 b 101 226 102 234 103 243 b 107 287 58 289 26 269 b 24 274 22 279 20 284 b 8 324 26 368 59 392 b 95 417 135 407 165 378 b 195 350 207 312 212 272 b 215 254 216 235 215 215 z"},"N":{"x_min":0,"x_max":881,"ha":881,"o":"m 72 859 b 48 677 44 491 58 307 b 65 216 75 125 91 35 b 99 -8 107 -52 119 -94 b 130 -130 140 -180 169 -206 b 176 -214 189 -214 199 -211 b 213 -207 224 -200 229 -186 b 231 -180 231 -172 230 -165 b 230 -164 231 -164 231 -163 b 253 14 275 191 313 366 b 332 453 354 539 382 623 b 407 699 439 784 498 841 b 510 853 531 870 550 865 b 567 860 574 835 579 820 b 592 781 595 739 600 698 b 611 612 610 525 609 439 b 606 268 591 91 627 -76 b 645 -158 669 -263 747 -309 b 803 -342 897 -331 928 -268 b 942 -240 898 -243 887 -261 b 873 -285 843 -282 823 -266 b 795 -244 781 -208 771 -175 b 748 -95 734 -11 728 72 b 715 245 729 419 715 592 b 708 676 696 767 652 840 b 616 901 545 917 487 874 b 427 829 391 752 365 685 b 333 604 310 521 290 437 b 252 278 228 115 207 -48 b 201 -12 196 25 192 62 b 182 150 173 238 169 327 b 160 507 166 686 182 865 b 187 931 79 911 72 859 z"},"+":{"x_min":0,"x_max":347,"ha":347,"o":"m 281 263 b 263 263 244 262 225 261 b 227 300 230 338 231 377 b 232 402 199 408 181 405 b 158 401 130 385 125 360 b 117 323 114 286 113 249 b 98 246 82 243 67 238 b 45 232 43 199 70 207 b 84 211 98 215 113 217 b 113 213 113 208 113 203 b 115 155 114 98 138 54 b 155 22 209 47 216 75 b 227 124 221 177 223 228 b 223 228 223 228 223 229 b 240 229 257 230 274 230 b 295 230 310 264 281 263 z"},"G":{"x_min":0,"x_max":1117,"ha":1117,"o":"m 222 512 b 277 635 356 748 462 832 b 520 878 586 922 660 939 b 693 947 730 947 761 932 b 797 914 818 875 819 836 b 820 815 860 828 860 847 b 860 886 867 930 844 964 b 822 996 789 1013 752 1021 b 664 1039 570 1001 496 958 b 349 873 230 746 148 597 b 105 519 71 432 57 344 b 43 255 45 158 102 84 b 157 14 249 -3 331 26 b 414 56 486 121 543 187 b 607 261 663 345 714 429 b 756 501 796 574 830 650 b 843 590 859 532 871 472 b 874 456 877 439 880 422 b 869 410 857 398 846 385 b 790 323 738 257 690 189 b 641 119 598 45 564 -32 b 528 -113 496 -200 499 -290 b 500 -327 506 -366 529 -395 b 552 -424 587 -437 623 -438 b 704 -441 783 -400 840 -345 b 904 -284 939 -199 966 -116 b 994 -30 1008 60 1013 150 b 1019 249 1012 347 994 444 b 992 456 990 468 987 480 b 1010 499 1033 517 1059 532 b 1066 537 1071 549 1064 556 b 1056 564 1043 559 1035 554 b 1016 542 998 529 980 515 b 962 592 937 667 896 733 b 881 759 831 745 821 719 b 818 717 817 715 815 712 b 752 566 672 426 572 302 b 525 244 474 188 415 141 b 366 103 294 55 235 102 b 178 146 167 220 168 287 b 169 364 191 442 222 512 z m 822 -217 b 794 -277 756 -342 697 -375 b 666 -391 625 -403 592 -387 b 559 -372 547 -331 543 -298 b 534 -213 564 -127 597 -50 b 627 20 664 86 706 150 b 754 223 808 292 866 358 b 873 366 880 373 886 381 b 893 333 897 284 899 235 b 903 84 885 -79 822 -217 z"},"q":{"x_min":0,"x_max":480,"ha":480,"o":"m 474 -37 b 452 -18 427 -2 400 10 b 388 15 375 18 363 23 b 341 33 362 53 371 66 b 415 126 461 184 511 239 b 528 259 495 267 482 252 b 443 209 405 163 369 117 b 361 106 353 96 345 86 b 347 186 351 286 350 387 b 350 437 267 421 242 386 b 240 386 238 387 236 388 b 199 403 158 394 123 377 b 54 342 4 277 -17 202 b -34 138 -40 30 30 -7 b 101 -45 159 29 183 87 b 202 133 213 181 226 229 b 221 137 221 45 225 -47 b 227 -109 232 -171 246 -232 b 259 -290 277 -352 314 -401 b 350 -447 409 -470 465 -448 b 514 -428 545 -380 560 -332 b 592 -226 557 -109 474 -37 z m 166 152 b 155 116 143 77 121 46 b 111 31 105 23 94 41 b 87 53 84 67 82 81 b 74 145 86 212 119 268 b 131 288 146 310 168 322 b 183 330 200 324 215 314 b 195 261 182 206 166 152 z m 509 -355 b 499 -377 481 -403 454 -403 b 430 -403 412 -381 401 -362 b 346 -266 346 -143 345 -35 b 345 -27 345 -19 345 -10 b 355 -14 365 -16 374 -20 b 398 -31 420 -45 440 -63 b 480 -98 509 -144 521 -196 b 534 -248 531 -306 509 -355 z"},"d":{"x_min":0,"x_max":558,"ha":558,"o":"m 556 253 b 527 181 511 105 478 35 b 468 12 442 -53 410 -46 b 380 -41 368 10 364 35 b 348 118 351 202 352 286 b 352 376 356 466 362 556 b 367 657 373 757 375 858 b 375 884 342 890 323 887 b 300 883 267 866 264 840 b 247 691 233 540 232 390 b 196 403 156 394 123 377 b 54 342 4 277 -17 202 b -34 138 -40 30 30 -7 b 101 -45 159 29 183 87 b 206 143 218 203 234 261 b 235 246 235 231 236 216 b 242 126 247 23 306 -50 b 329 -79 363 -99 402 -92 b 439 -86 467 -56 487 -26 b 542 55 562 158 590 251 b 596 270 561 266 556 253 z m 166 152 b 155 116 143 77 121 46 b 111 31 105 23 94 41 b 87 53 84 67 82 81 b 74 145 86 212 119 268 b 131 288 146 310 168 322 b 183 330 200 324 215 314 b 195 261 182 206 166 152 z"},"1":{"x_min":0,"x_max":452,"ha":452,"o":"m 87 485 b 103 519 124 548 148 577 b 167 599 216 655 247 618 b 259 603 253 575 251 557 b 250 538 249 518 247 499 b 243 460 238 422 234 383 b 217 222 200 61 194 -101 b 194 -105 195 -109 196 -113 b 172 -119 147 -125 122 -131 b 99 -136 97 -168 125 -162 b 206 -144 288 -113 372 -126 b 392 -129 418 -97 391 -92 b 361 -88 332 -88 302 -92 b 304 -89 304 -85 305 -82 b 313 16 317 115 321 213 b 325 308 331 403 324 498 b 320 561 305 676 216 661 b 176 653 146 624 120 594 b 94 562 69 529 52 491 b 41 467 79 468 87 485 z"},"5":{"x_min":0,"x_max":610,"ha":610,"o":"m 186 584 b 169 549 153 512 137 476 b 127 454 118 432 109 409 b 103 389 93 365 96 345 b 105 287 191 320 225 328 b 260 335 294 329 325 312 b 401 271 421 173 410 94 b 400 21 353 -59 269 -48 b 216 -41 181 -10 170 43 b 158 98 174 154 188 207 b 195 231 154 223 148 205 b 124 124 101 29 156 -45 b 206 -113 295 -122 368 -87 b 447 -50 499 31 510 117 b 520 203 503 301 434 360 b 400 388 358 408 314 413 b 287 417 262 416 236 411 b 226 409 216 407 206 404 b 208 411 210 418 212 423 b 219 443 227 463 235 482 b 250 520 265 559 273 599 b 346 615 525 650 519 592 b 517 568 558 576 560 595 b 568 684 403 655 354 647 b 328 643 302 636 275 630 b 267 655 218 639 206 619 b 205 618 205 618 205 617 b 167 612 105 605 87 646 b 79 663 43 646 51 629 b 72 581 133 577 186 584 z"}}}
